<svg xmlns="http://www.w3.org/2000/svg" xmlns:xlink="http://www.w3.org/1999/xlink" xmlns:lucid="lucid" width="780" height="220"><g transform="translate(-500 -280)" lucid:page-tab-id="0_0"><path d="M1112 300c81.74 0 148 40.3 148 90s-66.26 90-148 90H668c-81.74 0-148-40.3-148-90s66.26-90 148-90z" stroke="#5e5e5e" stroke-width="3" fill="#c1e4f7"/><use xlink:href="#a" transform="matrix(1,0,0,1,525,305) translate(265.7951234567901 24.888888888888886)"/><use xlink:href="#b" transform="matrix(1,0,0,1,525,305) translate(374.5975925925926 24.888888888888886)"/><path d="M627.95 359.43c2.24-2.45 6.74-4.43 10.05-4.43h84c3.3 0 7.8 1.98 10.05 4.43l23.9 26.14c2.24 2.45 2.24 6.4 0 8.86l-23.9 26.14C729.8 423.02 725.3 425 722 425h-84c-3.3 0-7.8-1.98-10.05-4.43l-23.9-26.14c-2.24-2.45-2.24-6.4 0-8.86z" stroke="#5e5e5e" stroke-width="3" fill="#c7e8ac"/><use xlink:href="#c" transform="matrix(1,0,0,1,605,360) translate(41.1161111111111 32.77777777777778)"/><path d="M1047.95 359.43c2.24-2.45 6.74-4.43 10.05-4.43h84c3.3 0 7.8 1.98 10.05 4.43l23.9 26.14c2.24 2.45 2.24 6.4 0 8.86l-23.9 26.14c-2.24 2.45-6.74 4.43-10.05 4.43h-84c-3.3 0-7.8-1.98-10.05-4.43l-23.9-26.14c-2.24-2.45-2.24-6.4 0-8.86z" stroke="#5e5e5e" stroke-width="3" fill="#c7e8ac"/><use xlink:href="#c" transform="matrix(1,0,0,1,1025,360) translate(41.1161111111111 32.77777777777778)"/><path d="M837.95 359.43c2.24-2.45 6.74-4.43 10.05-4.43h84c3.3 0 7.8 1.98 10.05 4.43l23.9 26.14c2.24 2.45 2.24 6.4 0 8.86l-23.9 26.14C939.8 423.02 935.3 425 932 425h-84c-3.3 0-7.8-1.98-10.05-4.43l-23.9-26.14c-2.24-2.45-2.24-6.4 0-8.86z" stroke="#5e5e5e" stroke-width="3" fill="#c7e8ac"/><use xlink:href="#c" transform="matrix(1,0,0,1,815,360) translate(41.1161111111111 32.77777777777778)"/><defs><path fill="#333" d="M24-248c120-7 223 5 221 122C244-46 201 0 124 0H24v-248zM76-40c74 7 117-18 117-86 0-67-45-88-117-82v168" id="d"/><path fill="#333" d="M185-48c-13 30-37 53-82 52C43 2 14-33 14-96s30-98 90-98c62 0 83 45 84 108H66c0 31 8 55 39 56 18 0 30-7 34-22zm-45-69c5-46-57-63-70-21-2 6-4 13-4 21h74" id="e"/><path fill="#333" d="M128 0H69L1-190h53L99-40l48-150h52" id="f"/><path fill="#333" d="M25-224v-37h50v37H25zM25 0v-190h50V0H25" id="g"/><path fill="#333" d="M190-63c-7 42-38 67-86 67-59 0-84-38-90-98-12-110 154-137 174-36l-49 2c-2-19-15-32-35-32-30 0-35 28-38 64-6 74 65 87 74 30" id="h"/><g id="a"><use transform="matrix(0.08641975308641973,0,0,0.08641975308641973,0,0)" xlink:href="#d"/><use transform="matrix(0.08641975308641973,0,0,0.08641975308641973,22.38271604938271,0)" xlink:href="#e"/><use transform="matrix(0.08641975308641973,0,0,0.08641975308641973,39.66666666666666,0)" xlink:href="#f"/><use transform="matrix(0.08641975308641973,0,0,0.08641975308641973,56.950617283950606,0)" xlink:href="#g"/><use transform="matrix(0.08641975308641973,0,0,0.08641975308641973,65.59259259259258,0)" xlink:href="#h"/><use transform="matrix(0.08641975308641973,0,0,0.08641975308641973,82.87654320987653,0)" xlink:href="#e"/></g><path fill="#333" d="M230 0l2-204L168 0h-37L68-204 70 0H24v-248h70l56 185 57-185h69V0h-46" id="i"/><path fill="#333" d="M110-194c64 0 96 36 96 99 0 64-35 99-97 99-61 0-95-36-95-99 0-62 34-99 96-99zm-1 164c35 0 45-28 45-65 0-40-10-65-43-65-34 0-45 26-45 65 0 36 10 65 43 65" id="j"/><path fill="#333" d="M88-194c31-1 46 15 58 34l-1-101h50l1 261h-48c-2-10 0-23-3-31C134-8 116 4 84 4 32 4 16-41 15-95c0-56 19-97 73-99zm17 164c33 0 40-30 41-66 1-37-9-64-41-64s-38 30-39 65c0 43 13 65 39 65" id="k"/><path fill="#333" d="M25 0v-261h50V0H25" id="l"/><g id="b"><use transform="matrix(0.08641975308641973,0,0,0.08641975308641973,0,0)" xlink:href="#i"/><use transform="matrix(0.08641975308641973,0,0,0.08641975308641973,25.8395061728395,0)" xlink:href="#j"/><use transform="matrix(0.08641975308641973,0,0,0.08641975308641973,44.765432098765416,0)" xlink:href="#k"/><use transform="matrix(0.08641975308641973,0,0,0.08641975308641973,63.69135802469135,0)" xlink:href="#e"/><use transform="matrix(0.08641975308641973,0,0,0.08641975308641973,80.97530864197529,0)" xlink:href="#l"/></g><path fill="#333" d="M30-248c118-7 216 8 213 122C240-48 200 0 122 0H30v-248zM63-27c89 8 146-16 146-99s-60-101-146-95v194" id="m"/><path fill="#333" d="M100-194c63 0 86 42 84 106H49c0 40 14 67 53 68 26 1 43-12 49-29l28 8c-11 28-37 45-77 45C44 4 14-33 15-96c1-61 26-98 85-98zm52 81c6-60-76-77-97-28-3 7-6 17-6 28h103" id="n"/><path fill="#333" d="M108 0H70L1-190h34L89-25l56-165h34" id="o"/><path fill="#333" d="M24-231v-30h32v30H24zM24 0v-190h32V0H24" id="p"/><path fill="#333" d="M96-169c-40 0-48 33-48 73s9 75 48 75c24 0 41-14 43-38l32 2c-6 37-31 61-74 61-59 0-76-41-82-99-10-93 101-131 147-64 4 7 5 14 7 22l-32 3c-4-21-16-35-41-35" id="q"/><g id="c"><use transform="matrix(0.06172839506172839,0,0,0.06172839506172839,0,0)" xlink:href="#m"/><use transform="matrix(0.06172839506172839,0,0,0.06172839506172839,15.987654320987653,0)" xlink:href="#n"/><use transform="matrix(0.06172839506172839,0,0,0.06172839506172839,28.333333333333332,0)" xlink:href="#o"/><use transform="matrix(0.06172839506172839,0,0,0.06172839506172839,39.44444444444444,0)" xlink:href="#p"/><use transform="matrix(0.06172839506172839,0,0,0.06172839506172839,44.32098765432099,0)" xlink:href="#q"/><use transform="matrix(0.06172839506172839,0,0,0.06172839506172839,55.4320987654321,0)" xlink:href="#n"/></g></defs></g></svg>