<svg xmlns="http://www.w3.org/2000/svg" xmlns:xlink="http://www.w3.org/1999/xlink" xmlns:lucid="lucid" width="780" height="632.44"><g transform="translate(-440 -347.5625)" lucid:page-tab-id="0_0"><path d="M460 386c0-3.3 2.7-6 6-6h728c3.3 0 6 2.7 6 6v336c0 3.3-2.28 7.43-5.08 9.2L835.08 956.8c-2.8 1.77-7.36 1.77-10.16 0L465.08 731.2c-2.8-1.77-5.08-5.9-5.08-9.2z" stroke="#5e5e5e" stroke-width="3" fill="#d1bcd2"/><path d="M665 373.56c0-3.3 2.7-6 6-6h318c3.3 0 6 2.7 6 6v109.7c0 3.32-2.7 6-6 6H671c-3.3 0-6-2.68-6-6z" stroke="#000" stroke-opacity="0" stroke-width="6" fill="#fff" fill-opacity="0"/><use xlink:href="#a" transform="matrix(1,0,0,1,670,372.5625) translate(87.70987654320989 63.388888888888886)"/><path d="M537.9 483.2c2.8-1.77 7.37-1.77 10.17 0l49.83 31.2c2.8 1.77 2.8 4.62 0 6.38L548.07 552c-2.8 1.76-7.36 1.76-10.17 0l-49.83-31.22c-2.8-1.76-2.8-4.6 0-6.37z" stroke="#5e5e5e" stroke-width="3" fill="#ffeca9"/><use xlink:href="#b" transform="matrix(1,0,0,1,487.9893381352624,485.00000000000006) translate(22.99882716049383 34.27777777777778)"/><path d="M824.92 483.2c2.8-1.77 7.36-1.77 10.16 0l49.84 31.2c2.8 1.77 2.8 4.62 0 6.38L835.08 552c-2.8 1.76-7.36 1.76-10.16 0l-49.84-31.22c-2.8-1.76-2.8-4.6 0-6.37z" stroke="#5e5e5e" stroke-width="3" fill="#ffeca9"/><use xlink:href="#b" transform="matrix(1,0,0,1,775,485.00000000000006) translate(22.99882716049383 34.27777777777778)"/><path d="M616.74 522.64c-2.34-2.35-2.34-6.15 0-8.5l29.9-29.9c2.35-2.34 4.25-1.55 4.25 1.76v7.2c0 3.3 2.68 6 6 6h59.2c3.3 0 6-2.7 6-6V486c0-3.3 1.9-4.1 4.24-1.76l29.9 29.9c2.35 2.35 2.35 6.15 0 8.5l-29.9 29.9c-2.35 2.35-4.24 1.56-4.24-1.75v-7.2c0-3.32-2.7-6-6-6h-59.2c-3.32 0-6 2.68-6 6v7.2c0 3.3-1.9 4.1-4.25 1.75z" stroke="#5e5e5e" stroke-width="3" fill="#c7e8ac"/><use xlink:href="#c" transform="matrix(1,0,0,1,617.5,484.99999999999994) translate(46.227222222222224 38.71527777777778)"/><path d="M903.75 522.64c-2.34-2.35-2.34-6.15 0-8.5l29.9-29.9c2.36-2.34 4.25-1.55 4.25 1.76v7.2c0 3.3 2.7 6 6 6h59.2c3.32 0 6-2.7 6-6V486c0-3.3 1.9-4.1 4.25-1.76l29.9 29.9c2.35 2.35 2.35 6.15 0 8.5l-29.9 29.9c-2.34 2.35-4.24 1.56-4.24-1.75v-7.2c0-3.32-2.68-6-6-6h-59.2c-3.3 0-6 2.68-6 6v7.2c0 3.3-1.9 4.1-4.24 1.75z" stroke="#5e5e5e" stroke-width="3" fill="#c7e8ac"/><use xlink:href="#c" transform="matrix(1,0,0,1,904.5106618647376,485.00000000000006) translate(46.227222222222224 38.71527777777778)"/><path d="M1057 473.4c18.7 14.67 30.5 14.67 37.47 14.67 11.25 0 26.22-14.67 37.47-14.67 7.08 0 18.78 0 37.57 14.67v73.72c-18.78-14.77-30.48-14.77-37.56-14.77-11.25 0-26.22 14.76-37.47 14.76-6.97 0-18.78 0-37.46-14.77z" stroke="#5e5e5e" stroke-width="6" fill="#ffbbb1"/><use xlink:href="#d" transform="matrix(1,0,0,1,1062.0106618647376,478.39709041800074) translate(14.555555555555557 30.611111111111114)"/><use xlink:href="#e" transform="matrix(1,0,0,1,1062.0106618647376,478.39709041800074) translate(-0.13580246913580396 57.27777777777778)"/><path d="M720.55 724.9c12.53 0 22.7 8.64 22.7 19.3 0 10.65-10.17 19.3-22.7 19.3h-68.1c-12.54 0-22.7-8.65-22.7-19.3 0-10.66 10.16-19.3 22.7-19.3z" stroke="#5e5e5e" stroke-width="3" fill="#ffeca9"/><use xlink:href="#f" transform="matrix(1,0,0,1,634.7420035137945,729.90575457146) translate(17.64697530864197 19.59027777777778)"/><path d="M686.5 541.1v159.57" stroke="#5e5e5e" stroke-width="4" fill="none"/><path d="M688.5 541.14h-4v-2.05h4z" fill="#5e5e5e"/><path d="M686.5 716.93l-4.64-14.26h9.27z" stroke="#5e5e5e" stroke-width="4" fill="#5e5e5e"/><path d="M537.9 583.2c2.8-1.77 7.37-1.77 10.17 0l49.83 31.2c2.8 1.77 2.8 4.62 0 6.38L548.07 652c-2.8 1.76-7.36 1.76-10.17 0l-49.83-31.22c-2.8-1.76-2.8-4.6 0-6.37z" stroke="#5e5e5e" stroke-width="3" fill="#e5e5e5"/><use xlink:href="#g" transform="matrix(1,0,0,1,487.9893381352624,585) translate(27.319814814814816 38.40277777777778)"/><path d="M543 556.78v.9" stroke="#5e5e5e" stroke-width="4" fill="none"/><path d="M545 556.83h-4v-2.23l2.46.23 1.53-.26z" fill="#5e5e5e"/><path d="M543 573.93l-4.65-14.26h9.27z" stroke="#5e5e5e" stroke-width="4" fill="#5e5e5e"/><path d="M758.88 749.24c-2.35-2.34-2.35-6.14 0-8.5l29.9-29.9c2.35-2.34 4.25-1.55 4.25 1.76v7.2c0 3.3 2.68 6 6 6h59.2c3.3 0 6-2.7 6-6v-7.2c0-3.3 1.9-4.1 4.24-1.75l29.9 29.9c2.35 2.35 2.35 6.15 0 8.5l-29.9 29.9c-2.34 2.34-4.24 1.55-4.24-1.76v-7.2c0-3.32-2.7-6-6-6h-59.2c-3.32 0-6 2.68-6 6v7.2c0 3.3-1.9 4.1-4.25 1.75z" stroke="#5e5e5e" stroke-width="3" fill="#c7e8ac"/><use xlink:href="#c" transform="matrix(1,0,0,1,759.6329963547271,711.6029095819994) translate(46.227222222222224 38.71527777777778)"/><path d="M914 700c18.68 14.67 30.5 14.67 37.47 14.67 11.25 0 26.2-14.67 37.46-14.67 7.1 0 18.8 0 37.58 14.67v73.72c-18.78-14.77-30.48-14.77-37.57-14.77-11.25 0-26.2 14.76-37.46 14.76-6.97 0-18.8 0-37.46-14.77z" stroke="#5e5e5e" stroke-width="6" fill="#ffbbb1"/><use xlink:href="#d" transform="matrix(1,0,0,1,919.0079963985532,705) translate(14.555555555555557 30.611111111111114)"/><use xlink:href="#e" transform="matrix(1,0,0,1,919.0079963985532,705) translate(-0.13580246913580396 57.27777777777778)"/><path d="M824.92 583.2c2.8-1.77 7.36-1.77 10.16 0l49.84 31.2c2.8 1.77 2.8 4.62 0 6.38L835.08 652c-2.8 1.76-7.36 1.76-10.16 0l-49.84-31.22c-2.8-1.76-2.8-4.6 0-6.37z" stroke="#5e5e5e" stroke-width="3" fill="#e5e5e5"/><use xlink:href="#g" transform="matrix(1,0,0,1,775,585) translate(27.319814814814816 38.40277777777778)"/><path d="M830 556.78v.9" stroke="#5e5e5e" stroke-width="4" fill="none"/><path d="M832 556.83h-4v-2.23l2.47.23 1.53-.26z" fill="#5e5e5e"/><path d="M830 573.93l-4.64-14.26h9.28z" stroke="#5e5e5e" stroke-width="4" fill="#5e5e5e"/><path d="M973.5 541.1V654c0 3.3-2.68 6-6 6H834.64c-3.32 0-6 2.7-6 6v35.56" stroke="#5e5e5e" stroke-width="4" fill="none"/><path d="M975.5 541.14h-4v-2.05h4z" fill="#5e5e5e"/><path d="M828.63 717.83L824 703.56h9.26z" stroke="#5e5e5e" stroke-width="4" fill="#5e5e5e"/><path d="M1113.26 559.45V664c0 3.3-2.7 6-6 6h-131c-3.32 0-6 2.7-6 6v5.5" stroke="#5e5e5e" stroke-width="4" fill="none"/><path d="M1115.26 559.5h-4v-1.07l4-1.96z" fill="#5e5e5e"/><path d="M970.26 697.77l-4.64-14.27h9.27z" stroke="#5e5e5e" stroke-width="4" fill="#5e5e5e"/><path d="M862.68 821.5c12.54 0 22.7 14.18 22.7 31.67 0 17.5-10.16 31.67-22.7 31.67h-68.1c-12.54 0-22.7-14.18-22.7-31.67 0-17.5 10.16-31.67 22.7-31.67z" stroke="#5e5e5e" stroke-width="3" fill="#0c7cba"/><use xlink:href="#h" transform="matrix(1,0,0,1,776.874999956174,826.5043698452719) translate(25.640802469135807 17.77777777777778)"/><use xlink:href="#i" transform="matrix(1,0,0,1,776.874999956174,826.5043698452719) translate(17.64697530864197 44.44444444444444)"/><path d="M828.63 767.7v29.57" stroke="#5e5e5e" stroke-width="4" fill="none"/><path d="M830.63 767.75h-4v-2.06h4z" fill="#5e5e5e"/><path d="M828.63 813.53L824 799.27h9.26z" stroke="#5e5e5e" stroke-width="4" fill="#5e5e5e"/><defs><path fill="#333" d="M67-125c0 53 21 87 73 88 37 1 54-22 65-47l45 17C233-25 199 4 140 4 58 4 20-42 15-125 8-235 124-281 211-232c18 10 29 29 36 50l-46 12c-8-25-30-41-62-41-52 0-71 34-72 86" id="j"/><path fill="#333" d="M110-194c64 0 96 36 96 99 0 64-35 99-97 99-61 0-95-36-95-99 0-62 34-99 96-99zm-1 164c35 0 45-28 45-65 0-40-10-65-43-65-34 0-45 26-45 65 0 36 10 65 43 65" id="k"/><path fill="#333" d="M135-194c87-1 58 113 63 194h-50c-7-57 23-157-34-157-59 0-34 97-39 157H25l-1-190h47c2 12-1 28 3 38 12-26 28-41 61-42" id="l"/><path fill="#333" d="M88-194c31-1 46 15 58 34l-1-101h50l1 261h-48c-2-10 0-23-3-31C134-8 116 4 84 4 32 4 16-41 15-95c0-56 19-97 73-99zm17 164c33 0 40-30 41-66 1-37-9-64-41-64s-38 30-39 65c0 43 13 65 39 65" id="m"/><path fill="#333" d="M25-224v-37h50v37H25zM25 0v-190h50V0H25" id="n"/><path fill="#333" d="M115-3C79 11 28 4 28-45v-112H4v-33h27l15-45h31v45h36v33H77v99c-1 23 16 31 38 25v30" id="o"/><g id="a"><use transform="matrix(0.08641975308641973,0,0,0.08641975308641973,0,0)" xlink:href="#j"/><use transform="matrix(0.08641975308641973,0,0,0.08641975308641973,22.38271604938271,0)" xlink:href="#k"/><use transform="matrix(0.08641975308641973,0,0,0.08641975308641973,41.30864197530863,0)" xlink:href="#l"/><use transform="matrix(0.08641975308641973,0,0,0.08641975308641973,60.234567901234556,0)" xlink:href="#m"/><use transform="matrix(0.08641975308641973,0,0,0.08641975308641973,79.16049382716048,0)" xlink:href="#n"/><use transform="matrix(0.08641975308641973,0,0,0.08641975308641973,87.80246913580245,0)" xlink:href="#o"/><use transform="matrix(0.08641975308641973,0,0,0.08641975308641973,98.0864197530864,0)" xlink:href="#n"/><use transform="matrix(0.08641975308641973,0,0,0.08641975308641973,106.72839506172838,0)" xlink:href="#k"/><use transform="matrix(0.08641975308641973,0,0,0.08641975308641973,125.65432098765429,0)" xlink:href="#l"/></g><path fill="#333" d="M230 0l2-204L168 0h-37L68-204 70 0H24v-248h70l56 185 57-185h69V0h-46" id="p"/><path fill="#333" d="M133-34C117-15 103 5 69 4 32 3 11-16 11-54c-1-60 55-63 116-61 1-26-3-47-28-47-18 1-26 9-28 27l-52-2c7-38 36-58 82-57s74 22 75 68l1 82c-1 14 12 18 25 15v27c-30 8-71 5-69-32zm-48 3c29 0 43-24 42-57-32 0-66-3-65 30 0 17 8 27 23 27" id="q"/><path fill="#333" d="M190-63c-7 42-38 67-86 67-59 0-84-38-90-98-12-110 154-137 174-36l-49 2c-2-19-15-32-35-32-30 0-35 28-38 64-6 74 65 87 74 30" id="r"/><path fill="#333" d="M114-157C55-157 80-60 75 0H25v-261h50l-1 109c12-26 28-41 61-42 86-1 58 113 63 194h-50c-7-57 23-157-34-157" id="s"/><g id="b"><use transform="matrix(0.06172839506172839,0,0,0.06172839506172839,0,0)" xlink:href="#p"/><use transform="matrix(0.06172839506172839,0,0,0.06172839506172839,18.456790123456788,0)" xlink:href="#q"/><use transform="matrix(0.06172839506172839,0,0,0.06172839506172839,30.80246913580247,0)" xlink:href="#o"/><use transform="matrix(0.06172839506172839,0,0,0.06172839506172839,38.148148148148145,0)" xlink:href="#r"/><use transform="matrix(0.06172839506172839,0,0,0.06172839506172839,50.49382716049382,0)" xlink:href="#s"/></g><path fill="#333" d="M24 0v-248h52v208h133V0H24" id="t"/><path fill="#333" d="M147 0L96-86 75-71V0H25v-261h50v150l67-79h53l-66 74L201 0h-54" id="u"/><g id="c"><use transform="matrix(0.06172839506172839,0,0,0.06172839506172839,0,0)" xlink:href="#t"/><use transform="matrix(0.06172839506172839,0,0,0.06172839506172839,13.518518518518517,0)" xlink:href="#n"/><use transform="matrix(0.06172839506172839,0,0,0.06172839506172839,19.691358024691358,0)" xlink:href="#l"/><use transform="matrix(0.06172839506172839,0,0,0.06172839506172839,33.20987654320987,0)" xlink:href="#u"/></g><path fill="#333" d="M175 0L67-191c6 58 2 128 3 191H24v-248h59L193-55c-6-58-2-129-3-193h46V0h-61" id="v"/><path fill="#333" d="M185-48c-13 30-37 53-82 52C43 2 14-33 14-96s30-98 90-98c62 0 83 45 84 108H66c0 31 8 55 39 56 18 0 30-7 34-22zm-45-69c5-46-57-63-70-21-2 6-4 13-4 21h74" id="w"/><path fill="#333" d="M137-138c1-29-70-34-71-4 15 46 118 7 119 86 1 83-164 76-172 9l43-7c4 19 20 25 44 25 33 8 57-30 24-41C81-84 22-81 20-136c-2-80 154-74 161-7" id="x"/><g id="d"><use transform="matrix(0.06172839506172839,0,0,0.06172839506172839,0,0)" xlink:href="#v"/><use transform="matrix(0.06172839506172839,0,0,0.06172839506172839,15.987654320987653,0)" xlink:href="#w"/><use transform="matrix(0.06172839506172839,0,0,0.06172839506172839,28.333333333333332,0)" xlink:href="#x"/><use transform="matrix(0.06172839506172839,0,0,0.06172839506172839,40.67901234567901,0)" xlink:href="#o"/><use transform="matrix(0.06172839506172839,0,0,0.06172839506172839,48.02469135802469,0)" xlink:href="#w"/><use transform="matrix(0.06172839506172839,0,0,0.06172839506172839,60.37037037037037,0)" xlink:href="#m"/></g><g id="e"><use transform="matrix(0.06172839506172839,0,0,0.06172839506172839,0,0)" xlink:href="#j"/><use transform="matrix(0.06172839506172839,0,0,0.06172839506172839,15.987654320987653,0)" xlink:href="#k"/><use transform="matrix(0.06172839506172839,0,0,0.06172839506172839,29.50617283950617,0)" xlink:href="#l"/><use transform="matrix(0.06172839506172839,0,0,0.06172839506172839,43.02469135802469,0)" xlink:href="#m"/><use transform="matrix(0.06172839506172839,0,0,0.06172839506172839,56.54320987654321,0)" xlink:href="#n"/><use transform="matrix(0.06172839506172839,0,0,0.06172839506172839,62.71604938271605,0)" xlink:href="#o"/><use transform="matrix(0.06172839506172839,0,0,0.06172839506172839,70.06172839506173,0)" xlink:href="#n"/><use transform="matrix(0.06172839506172839,0,0,0.06172839506172839,76.23456790123457,0)" xlink:href="#k"/><use transform="matrix(0.06172839506172839,0,0,0.06172839506172839,89.75308641975309,0)" xlink:href="#l"/></g><path fill="#333" d="M240-174c0 40-23 61-54 70L253 0h-59l-57-94H76V0H24v-248c93 4 217-23 216 74zM76-134c48-2 112 12 112-38 0-48-66-32-112-35v73" id="y"/><path fill="#333" d="M85 4C-2 5 27-109 22-190h50c7 57-23 150 33 157 60-5 35-97 40-157h50l1 190h-47c-2-12 1-28-3-38-12 25-28 42-61 42" id="z"/><path fill="#333" d="M25 0v-261h50V0H25" id="A"/><g id="f"><use transform="matrix(0.06172839506172839,0,0,0.06172839506172839,0,0)" xlink:href="#y"/><use transform="matrix(0.06172839506172839,0,0,0.06172839506172839,15.987654320987653,0)" xlink:href="#w"/><use transform="matrix(0.06172839506172839,0,0,0.06172839506172839,28.333333333333332,0)" xlink:href="#x"/><use transform="matrix(0.06172839506172839,0,0,0.06172839506172839,40.67901234567901,0)" xlink:href="#z"/><use transform="matrix(0.06172839506172839,0,0,0.06172839506172839,54.19753086419753,0)" xlink:href="#A"/><use transform="matrix(0.06172839506172839,0,0,0.06172839506172839,60.370370370370374,0)" xlink:href="#o"/></g><path fill="#333" d="M24-248c120-7 223 5 221 122C244-46 201 0 124 0H24v-248zM76-40c74 7 117-18 117-86 0-67-45-88-117-82v168" id="B"/><g id="g"><use transform="matrix(0.06172839506172839,0,0,0.06172839506172839,0,0)" xlink:href="#B"/><use transform="matrix(0.06172839506172839,0,0,0.06172839506172839,15.987654320987653,0)" xlink:href="#k"/><use transform="matrix(0.06172839506172839,0,0,0.06172839506172839,29.50617283950617,0)" xlink:href="#l"/><use transform="matrix(0.06172839506172839,0,0,0.06172839506172839,43.02469135802469,0)" xlink:href="#w"/></g><path fill="#fff" d="M76-208v77h127v40H76V0H24v-248h183v40H76" id="C"/><path fill="#fff" d="M25-224v-37h50v37H25zM25 0v-190h50V0H25" id="D"/><path fill="#fff" d="M135-194c87-1 58 113 63 194h-50c-7-57 23-157-34-157-59 0-34 97-39 157H25l-1-190h47c2 12-1 28 3 38 12-26 28-41 61-42" id="E"/><path fill="#fff" d="M133-34C117-15 103 5 69 4 32 3 11-16 11-54c-1-60 55-63 116-61 1-26-3-47-28-47-18 1-26 9-28 27l-52-2c7-38 36-58 82-57s74 22 75 68l1 82c-1 14 12 18 25 15v27c-30 8-71 5-69-32zm-48 3c29 0 43-24 42-57-32 0-66-3-65 30 0 17 8 27 23 27" id="F"/><path fill="#fff" d="M25 0v-261h50V0H25" id="G"/><g id="h"><use transform="matrix(0.06172839506172839,0,0,0.06172839506172839,0,0)" xlink:href="#C"/><use transform="matrix(0.06172839506172839,0,0,0.06172839506172839,13.518518518518517,0)" xlink:href="#D"/><use transform="matrix(0.06172839506172839,0,0,0.06172839506172839,19.691358024691358,0)" xlink:href="#E"/><use transform="matrix(0.06172839506172839,0,0,0.06172839506172839,33.20987654320987,0)" xlink:href="#F"/><use transform="matrix(0.06172839506172839,0,0,0.06172839506172839,45.55555555555555,0)" xlink:href="#G"/></g><path fill="#fff" d="M240-174c0 40-23 61-54 70L253 0h-59l-57-94H76V0H24v-248c93 4 217-23 216 74zM76-134c48-2 112 12 112-38 0-48-66-32-112-35v73" id="H"/><path fill="#fff" d="M185-48c-13 30-37 53-82 52C43 2 14-33 14-96s30-98 90-98c62 0 83 45 84 108H66c0 31 8 55 39 56 18 0 30-7 34-22zm-45-69c5-46-57-63-70-21-2 6-4 13-4 21h74" id="I"/><path fill="#fff" d="M137-138c1-29-70-34-71-4 15 46 118 7 119 86 1 83-164 76-172 9l43-7c4 19 20 25 44 25 33 8 57-30 24-41C81-84 22-81 20-136c-2-80 154-74 161-7" id="J"/><path fill="#fff" d="M85 4C-2 5 27-109 22-190h50c7 57-23 150 33 157 60-5 35-97 40-157h50l1 190h-47c-2-12 1-28-3-38-12 25-28 42-61 42" id="K"/><path fill="#fff" d="M115-3C79 11 28 4 28-45v-112H4v-33h27l15-45h31v45h36v33H77v99c-1 23 16 31 38 25v30" id="L"/><g id="i"><use transform="matrix(0.06172839506172839,0,0,0.06172839506172839,0,0)" xlink:href="#H"/><use transform="matrix(0.06172839506172839,0,0,0.06172839506172839,15.987654320987653,0)" xlink:href="#I"/><use transform="matrix(0.06172839506172839,0,0,0.06172839506172839,28.333333333333332,0)" xlink:href="#J"/><use transform="matrix(0.06172839506172839,0,0,0.06172839506172839,40.67901234567901,0)" xlink:href="#K"/><use transform="matrix(0.06172839506172839,0,0,0.06172839506172839,54.19753086419753,0)" xlink:href="#G"/><use transform="matrix(0.06172839506172839,0,0,0.06172839506172839,60.370370370370374,0)" xlink:href="#L"/></g></defs></g></svg>