<?xml version="1.0" encoding="UTF-8" standalone="no"?>
<svg
   xmlns:dc="http://purl.org/dc/elements/1.1/"
   xmlns:cc="http://creativecommons.org/ns#"
   xmlns:rdf="http://www.w3.org/1999/02/22-rdf-syntax-ns#"
   xmlns:svg="http://www.w3.org/2000/svg"
   xmlns="http://www.w3.org/2000/svg"
   xmlns:sodipodi="http://sodipodi.sourceforge.net/DTD/sodipodi-0.dtd"
   xmlns:inkscape="http://www.inkscape.org/namespaces/inkscape"
   version="1.1"
   id="svg2"
   xml:space="preserve"
   width="1333.3333"
   height="886.66669"
   viewBox="450 230 430 420"
   sodipodi:docname="GrowAutomation-01.eps"><metadata
     id="metadata8"><rdf:RDF><cc:Work
         rdf:about=""><dc:format>image/svg+xml</dc:format><dc:type
           rdf:resource="http://purl.org/dc/dcmitype/StillImage" /></cc:Work></rdf:RDF></metadata><defs
     id="defs6"><clipPath
       clipPathUnits="userSpaceOnUse"
       id="clipPath20"><path
         d="m 4068.13,2862.35 c 12.59,12.53 29.48,20.13 48.63,20.15 19.13,-0.02 36.02,-7.62 48.62,-20.15 12.53,-12.59 20.13,-29.48 20.15,-48.61 -0.02,-19.17 -7.62,-36.04 -20.15,-48.63 -12.6,-12.53 -29.49,-20.13 -48.62,-20.15 -19.15,0.02 -36.04,7.63 -48.63,20.15 -12.53,12.59 -20.12,29.46 -20.14,48.63 0.02,19.14 7.61,36.02 20.14,48.61 z m 97.43,-207.67 c 26.34,8.08 49.97,22.48 68.85,41.39 30.03,29.97 48.75,71.87 48.72,117.67 0.03,45.78 -18.69,87.69 -48.72,117.64 -29.97,30.04 -71.86,48.76 -117.65,48.73 -45.79,0.03 -87.69,-18.69 -117.65,-48.73 -30.04,-29.96 -48.75,-71.86 -48.72,-117.64 -0.03,-45.8 18.68,-87.7 48.72,-117.67 18.87,-18.91 42.5,-33.32 68.84,-41.39 v -349.62 l 439.23,-73.19 V 1915.3 h 97.61 v 399.24 l -439.23,73.2 z"
         id="path18" /></clipPath><linearGradient
       x1="0"
       y1="0"
       x2="1"
       y2="0"
       gradientUnits="userSpaceOnUse"
       gradientTransform="matrix(-265.532,-3584.68,-3584.68,265.532,4517.75,5609.83)"
       spreadMethod="pad"
       id="linearGradient28"><stop
         style="stop-opacity:1;stop-color:#cfd307"
         offset="0"
         id="stop22" /><stop
         style="stop-opacity:1;stop-color:#cfd307"
         offset="0.20540957"
         id="stop24" /><stop
         style="stop-opacity:1;stop-color:#123d10"
         offset="1"
         id="stop26" /></linearGradient><clipPath
       clipPathUnits="userSpaceOnUse"
       id="clipPath38"><path
         d="m 6339.07,3660.57 c -12.63,-12.53 -29.5,-20.14 -48.65,-20.15 -19.14,0.01 -36.04,7.62 -48.63,20.15 -12.53,12.59 -20.12,29.47 -20.14,48.62 0.02,19.15 7.61,36.03 20.14,48.63 12.59,12.52 29.49,20.12 48.63,20.15 19.15,-0.03 36.02,-7.63 48.65,-20.15 12.5,-12.6 20.1,-29.48 20.12,-48.63 -0.02,-19.15 -7.62,-36.03 -20.12,-48.62 z m -562.85,-58.02 c 12.62,12.52 29.48,20.13 48.63,20.14 19.16,-0.01 36.04,-7.62 48.63,-20.14 12.51,-12.6 20.13,-29.47 20.16,-48.62 -0.03,-19.16 -7.65,-36.03 -20.16,-48.63 -12.59,-12.53 -29.47,-20.13 -48.63,-20.14 -19.15,0.01 -36.01,7.62 -48.63,20.14 -12.51,12.6 -20.1,29.47 -20.12,48.63 0.02,19.15 7.61,36.02 20.12,48.62 z m 680.59,106.64 c 0,45.8 -18.7,87.7 -48.74,117.65 -29.95,30.04 -71.87,48.75 -117.65,48.73 -45.8,0.02 -87.71,-18.69 -117.66,-48.73 -30.01,-29.95 -48.75,-71.85 -48.73,-117.65 -0.02,-45.79 18.72,-87.7 48.73,-117.65 18.87,-18.92 42.5,-33.32 68.85,-41.4 V 2799.68 L 5076.52,2266.91 v 454.91 l 797.13,366.01 v 307.04 c 26.35,8.08 49.98,22.48 68.85,41.4 30.04,29.96 48.76,71.86 48.75,117.66 0.01,45.78 -18.71,87.69 -48.75,117.64 -29.95,30.03 -71.87,48.76 -117.65,48.73 -45.79,0.03 -87.69,-18.7 -117.62,-48.73 -30.04,-29.95 -48.76,-71.86 -48.74,-117.64 -0.02,-45.8 18.7,-87.7 48.74,-117.66 18.86,-18.92 42.49,-33.32 68.83,-41.4 V 3150.43 L 4978.92,2784.4 v -869.1 h 97.6 v 255.01 l 4.06,-8.86 1258.65,575.53 v 813.16 c 26.34,8.08 49.97,22.49 68.84,41.4 30.04,29.95 48.74,71.86 48.74,117.65 z"
         id="path36" /></clipPath><linearGradient
       x1="0"
       y1="0"
       x2="1"
       y2="0"
       gradientUnits="userSpaceOnUse"
       gradientTransform="matrix(-265.532,-3584.68,-3584.68,265.532,5885.63,5508.5)"
       spreadMethod="pad"
       id="linearGradient46"><stop
         style="stop-opacity:1;stop-color:#cfd307"
         offset="0"
         id="stop40" /><stop
         style="stop-opacity:1;stop-color:#cfd307"
         offset="0.20540957"
         id="stop42" /><stop
         style="stop-opacity:1;stop-color:#123d10"
         offset="1"
         id="stop44" /></linearGradient><clipPath
       clipPathUnits="userSpaceOnUse"
       id="clipPath56"><path
         d="m 4848.62,4519.69 c -12.59,-12.51 -29.48,-20.12 -48.62,-20.14 -19.15,0.02 -36.04,7.63 -48.63,20.14 -12.52,12.61 -20.12,29.49 -20.14,48.63 0.02,19.14 7.62,36.04 20.14,48.64 12.59,12.51 29.48,20.11 48.63,20.14 19.14,-0.03 36.03,-7.63 48.62,-20.14 12.52,-12.6 20.13,-29.5 20.15,-48.64 -0.02,-19.14 -7.63,-36.02 -20.15,-48.63 z m 178.83,-382.19 c 62.34,55.13 142.87,109.22 245.8,149.73 102.94,40.47 228.41,67.48 381.53,67.5 72.01,0 150.25,-6.13 234.92,-19.6 -27.58,-49.09 -75.47,-123.95 -145.38,-197.96 -58.99,-62.53 -133.28,-124.28 -223.65,-170.17 -90.44,-45.9 -196.74,-76.28 -322.39,-76.33 -43.57,0 -89.56,3.76 -137.99,11.86 v -98.89 c 47.81,-7.18 93.82,-10.59 137.99,-10.59 142.73,-0.04 266.03,35.32 369.02,88.17 154.68,79.36 264.05,196.84 335.27,294.03 71.15,97.32 104.39,174.91 105.46,177.32 l 23.65,55.43 -59.14,11.61 c -115.43,22.68 -221.14,32.73 -317.76,32.73 -171.25,0.02 -313.98,-31.67 -431.01,-79.82 -175.66,-72.2 -292.81,-180.9 -365.65,-271.51 -3.23,-4.01 -6.26,-7.94 -9.32,-11.87 v 320.13 c 26.34,8.08 49.97,22.49 68.84,41.4 30.03,29.95 48.76,71.86 48.73,117.65 0.03,45.8 -18.7,87.7 -48.73,117.65 -29.96,30.04 -71.86,48.75 -117.64,48.73 -45.79,0.02 -87.7,-18.69 -117.66,-48.73 -30.02,-29.95 -48.74,-71.85 -48.73,-117.65 -0.01,-45.79 18.71,-87.7 48.73,-117.65 18.88,-18.91 42.51,-33.32 68.86,-41.4 v -483.69 -149.84 -429.16 c -27.42,36.4 -62.22,76.66 -105.56,117 -69.25,64.39 -160.45,128.8 -277.52,176.9 -117.03,48.15 -259.76,79.85 -431.02,79.81 -96.62,0 -202.32,-10.04 -317.76,-32.72 l -59.13,-11.62 23.66,-55.41 c 1.46,-3.2 59.86,-140.14 189.65,-279.12 64.93,-69.44 147.94,-139.41 251.06,-192.24 103.01,-52.87 226.3,-88.23 369.03,-88.17 39.12,0 79.72,2.75 121.69,8.35 v 98.46 c -42.48,-6.31 -83.02,-9.2 -121.69,-9.2 -126.64,0.05 -233.62,30.92 -324.53,77.42 -136.18,69.67 -235.86,175.73 -300.99,264.82 -28.57,39.05 -50.46,74.69 -65.95,102.22 84.69,13.48 162.94,19.61 234.96,19.61 159.3,-0.03 288.69,-29.24 393.91,-72.47 157.7,-64.86 261.73,-161.72 326.71,-242.43 32.44,-40.32 54.99,-76.54 69.24,-102.28 7.15,-12.87 12.19,-23.13 15.39,-29.94 0.3,-0.63 0.49,-1.07 0.74,-1.63 V 1915.3 h 105.71 v 1860.44 130.27 c 13.14,28.56 65.91,131.9 178.65,231.49 z"
         id="path54" /></clipPath><linearGradient
       x1="0"
       y1="0"
       x2="1"
       y2="0"
       gradientUnits="userSpaceOnUse"
       gradientTransform="matrix(-265.532,-3584.68,-3584.68,265.532,4909.93,5580.78)"
       spreadMethod="pad"
       id="linearGradient64"><stop
         style="stop-opacity:1;stop-color:#cfd307"
         offset="0"
         id="stop58" /><stop
         style="stop-opacity:1;stop-color:#cfd307"
         offset="0.20540957"
         id="stop60" /><stop
         style="stop-opacity:1;stop-color:#123d10"
         offset="1"
         id="stop62" /></linearGradient></defs><sodipodi:namedview
     pagecolor="#ffffff"
     bordercolor="#666666"
     borderopacity="1"
     objecttolerance="10"
     gridtolerance="10"
     guidetolerance="10"
     inkscape:pageopacity="0"
     inkscape:pageshadow="2"
     inkscape:window-width="640"
     inkscape:window-height="480"
     id="namedview4" /><g
     id="g10"
     inkscape:groupmode="layer"
     inkscape:label="ink_ext_XXXXXX"
     transform="matrix(1.3333333,0,0,-1.3333333,0,886.66667)"><g
       id="g12"
       transform="scale(0.1)"><g
         id="g14"><g
           id="g16"
           clip-path="url(#clipPath20)"><path
             d="m 4068.13,2862.35 c 12.59,12.53 29.48,20.13 48.63,20.15 19.13,-0.02 36.02,-7.62 48.62,-20.15 12.53,-12.59 20.13,-29.48 20.15,-48.61 -0.02,-19.17 -7.62,-36.04 -20.15,-48.63 -12.6,-12.53 -29.49,-20.13 -48.62,-20.15 -19.15,0.02 -36.04,7.63 -48.63,20.15 -12.53,12.59 -20.12,29.46 -20.14,48.63 0.02,19.14 7.61,36.02 20.14,48.61 z m 97.43,-207.67 c 26.34,8.08 49.97,22.48 68.85,41.39 30.03,29.97 48.75,71.87 48.72,117.67 0.03,45.78 -18.69,87.69 -48.72,117.64 -29.97,30.04 -71.86,48.76 -117.65,48.73 -45.79,0.03 -87.69,-18.69 -117.65,-48.73 -30.04,-29.96 -48.75,-71.86 -48.72,-117.64 -0.03,-45.8 18.68,-87.7 48.72,-117.67 18.87,-18.91 42.5,-33.32 68.84,-41.39 v -349.62 l 439.23,-73.19 V 1915.3 h 97.61 v 399.24 l -439.23,73.2 v 266.94"
             style="fill:url(#linearGradient28);fill-opacity:1;fill-rule:nonzero;stroke:none"
             id="path30" /></g></g><g
         id="g32"><g
           id="g34"
           clip-path="url(#clipPath38)"><path
             d="m 6339.07,3660.57 c -12.63,-12.53 -29.5,-20.14 -48.65,-20.15 -19.14,0.01 -36.04,7.62 -48.63,20.15 -12.53,12.59 -20.12,29.47 -20.14,48.62 0.02,19.15 7.61,36.03 20.14,48.63 12.59,12.52 29.49,20.12 48.63,20.15 19.15,-0.03 36.02,-7.63 48.65,-20.15 12.5,-12.6 20.1,-29.48 20.12,-48.63 -0.02,-19.15 -7.62,-36.03 -20.12,-48.62 z m -562.85,-58.02 c 12.62,12.52 29.48,20.13 48.63,20.14 19.16,-0.01 36.04,-7.62 48.63,-20.14 12.51,-12.6 20.13,-29.47 20.16,-48.62 -0.03,-19.16 -7.65,-36.03 -20.16,-48.63 -12.59,-12.53 -29.47,-20.13 -48.63,-20.14 -19.15,0.01 -36.01,7.62 -48.63,20.14 -12.51,12.6 -20.1,29.47 -20.12,48.63 0.02,19.15 7.61,36.02 20.12,48.62 z m 680.59,106.64 c 0,45.8 -18.7,87.7 -48.74,117.65 -29.95,30.04 -71.87,48.75 -117.65,48.73 -45.8,0.02 -87.71,-18.69 -117.66,-48.73 -30.01,-29.95 -48.75,-71.85 -48.73,-117.65 -0.02,-45.79 18.72,-87.7 48.73,-117.65 18.87,-18.92 42.5,-33.32 68.85,-41.4 V 2799.68 L 5076.52,2266.91 v 454.91 l 797.13,366.01 v 307.04 c 26.35,8.08 49.98,22.48 68.85,41.4 30.04,29.96 48.76,71.86 48.75,117.66 0.01,45.78 -18.71,87.69 -48.75,117.64 -29.95,30.03 -71.87,48.76 -117.65,48.73 -45.79,0.03 -87.69,-18.7 -117.62,-48.73 -30.04,-29.95 -48.76,-71.86 -48.74,-117.64 -0.02,-45.8 18.7,-87.7 48.74,-117.66 18.86,-18.92 42.49,-33.32 68.83,-41.4 V 3150.43 L 4978.92,2784.4 v -869.1 h 97.6 v 255.01 l 4.06,-8.86 1258.65,575.53 v 813.16 c 26.34,8.08 49.97,22.49 68.84,41.4 30.04,29.95 48.74,71.86 48.74,117.65"
             style="fill:url(#linearGradient46);fill-opacity:1;fill-rule:nonzero;stroke:none"
             id="path48" /></g></g><g
         id="g50"><g
           id="g52"
           clip-path="url(#clipPath56)"><path
             d="m 4848.62,4519.69 c -12.59,-12.51 -29.48,-20.12 -48.62,-20.14 -19.15,0.02 -36.04,7.63 -48.63,20.14 -12.52,12.61 -20.12,29.49 -20.14,48.63 0.02,19.14 7.62,36.04 20.14,48.64 12.59,12.51 29.48,20.11 48.63,20.14 19.14,-0.03 36.03,-7.63 48.62,-20.14 12.52,-12.6 20.13,-29.5 20.15,-48.64 -0.02,-19.14 -7.63,-36.02 -20.15,-48.63 z m 178.83,-382.19 c 62.34,55.13 142.87,109.22 245.8,149.73 102.94,40.47 228.41,67.48 381.53,67.5 72.01,0 150.25,-6.13 234.92,-19.6 -27.58,-49.09 -75.47,-123.95 -145.38,-197.96 -58.99,-62.53 -133.28,-124.28 -223.65,-170.17 -90.44,-45.9 -196.74,-76.28 -322.39,-76.33 -43.57,0 -89.56,3.76 -137.99,11.86 v -98.89 c 47.81,-7.18 93.82,-10.59 137.99,-10.59 142.73,-0.04 266.03,35.32 369.02,88.17 154.68,79.36 264.05,196.84 335.27,294.03 71.15,97.32 104.39,174.91 105.46,177.32 l 23.65,55.43 -59.14,11.61 c -115.43,22.68 -221.14,32.73 -317.76,32.73 -171.25,0.02 -313.98,-31.67 -431.01,-79.82 -175.66,-72.2 -292.81,-180.9 -365.65,-271.51 -3.23,-4.01 -6.26,-7.94 -9.32,-11.87 v 320.13 c 26.34,8.08 49.97,22.49 68.84,41.4 30.03,29.95 48.76,71.86 48.73,117.65 0.03,45.8 -18.7,87.7 -48.73,117.65 -29.96,30.04 -71.86,48.75 -117.64,48.73 -45.79,0.02 -87.7,-18.69 -117.66,-48.73 -30.02,-29.95 -48.74,-71.85 -48.73,-117.65 -0.01,-45.79 18.71,-87.7 48.73,-117.65 18.88,-18.91 42.51,-33.32 68.86,-41.4 v -483.69 -149.84 -429.16 c -27.42,36.4 -62.22,76.66 -105.56,117 -69.25,64.39 -160.45,128.8 -277.52,176.9 -117.03,48.15 -259.76,79.85 -431.02,79.81 -96.62,0 -202.32,-10.04 -317.76,-32.72 l -59.13,-11.62 23.66,-55.41 c 1.46,-3.2 59.86,-140.14 189.65,-279.12 64.93,-69.44 147.94,-139.41 251.06,-192.24 103.01,-52.87 226.3,-88.23 369.03,-88.17 39.12,0 79.72,2.75 121.69,8.35 v 98.46 c -42.48,-6.31 -83.02,-9.2 -121.69,-9.2 -126.64,0.05 -233.62,30.92 -324.53,77.42 -136.18,69.67 -235.86,175.73 -300.99,264.82 -28.57,39.05 -50.46,74.69 -65.95,102.22 84.69,13.48 162.94,19.61 234.96,19.61 159.3,-0.03 288.69,-29.24 393.91,-72.47 157.7,-64.86 261.73,-161.72 326.71,-242.43 32.44,-40.32 54.99,-76.54 69.24,-102.28 7.15,-12.87 12.19,-23.13 15.39,-29.94 0.3,-0.63 0.49,-1.07 0.74,-1.63 V 1915.3 h 105.71 v 1860.44 130.27 c 13.14,28.56 65.91,131.9 178.65,231.49"
             style="fill:url(#linearGradient64);fill-opacity:1;fill-rule:nonzero;stroke:none"
             id="path66" /></g></g></g></g></svg>
