<?xml version="1.0" encoding="UTF-8" standalone="no"?>
<svg
   xmlns:dc="http://purl.org/dc/elements/1.1/"
   xmlns:cc="http://creativecommons.org/ns#"
   xmlns:rdf="http://www.w3.org/1999/02/22-rdf-syntax-ns#"
   xmlns:svg="http://www.w3.org/2000/svg"
   xmlns="http://www.w3.org/2000/svg"
   xmlns:sodipodi="http://sodipodi.sourceforge.net/DTD/sodipodi-0.dtd"
   xmlns:inkscape="http://www.inkscape.org/namespaces/inkscape"
   version="1.1"
   id="svg2"
   xml:space="preserve"
   width="1333.3333"
   height="886.66669"
   viewBox="450 230 440 450"
   sodipodi:docname="GrowAutomation-02.eps"><metadata
     id="metadata8"><rdf:RDF><cc:Work
         rdf:about=""><dc:format>image/svg+xml</dc:format><dc:type
           rdf:resource="http://purl.org/dc/dcmitype/StillImage" /></cc:Work></rdf:RDF></metadata><defs
     id="defs6"><clipPath
       clipPathUnits="userSpaceOnUse"
       id="clipPath20"><path
         d="m 4263.06,3285.9 c 9.87,9.82 23.1,15.78 38.1,15.79 15,-0.01 28.23,-5.97 38.11,-15.79 9.81,-9.86 15.78,-23.1 15.79,-38.1 -0.01,-15.02 -5.98,-28.24 -15.79,-38.11 -9.88,-9.82 -23.11,-15.77 -38.11,-15.78 -15,0.01 -28.23,5.97 -38.1,15.78 -9.82,9.87 -15.77,23.09 -15.78,38.11 0.01,15 5.96,28.24 15.78,38.1 z m 76.35,-162.75 c 20.64,6.34 39.15,17.62 53.95,32.45 23.53,23.47 38.21,56.31 38.18,92.2 0.03,35.89 -14.65,68.72 -38.18,92.2 -23.48,23.53 -56.31,38.2 -92.2,38.18 -35.88,0.02 -68.71,-14.65 -92.2,-38.18 -23.53,-23.49 -38.2,-56.31 -38.18,-92.2 -0.02,-35.89 14.65,-68.73 38.18,-92.2 14.8,-14.83 33.32,-26.12 53.96,-32.45 v -273.98 l 344.21,-57.35 v -248.09 h 76.48 v 312.87 l -344.2,57.36 z"
         id="path18" /></clipPath><linearGradient
       x1="0"
       y1="0"
       x2="1"
       y2="0"
       gradientUnits="userSpaceOnUse"
       gradientTransform="matrix(-208.088,-2809.19,-2809.19,208.088,4615.41,5439)"
       spreadMethod="pad"
       id="linearGradient28"><stop
         style="stop-opacity:1;stop-color:#cfd307"
         offset="0"
         id="stop22" /><stop
         style="stop-opacity:1;stop-color:#cfd307"
         offset="0.20540957"
         id="stop24" /><stop
         style="stop-opacity:1;stop-color:#123d10"
         offset="1"
         id="stop26" /></linearGradient><clipPath
       clipPathUnits="userSpaceOnUse"
       id="clipPath38"><path
         d="m 6042.71,3911.43 c -9.9,-9.81 -23.11,-15.77 -38.12,-15.79 -15,0.02 -28.24,5.98 -38.12,15.79 -9.82,9.87 -15.77,23.1 -15.78,38.11 0.01,15 5.96,28.23 15.78,38.11 9.88,9.81 23.12,15.77 38.12,15.79 15.01,-0.02 28.22,-5.98 38.12,-15.79 9.8,-9.88 15.76,-23.11 15.77,-38.11 -0.01,-15.01 -5.97,-28.24 -15.77,-38.11 z m -441.08,-45.46 c 9.88,9.81 23.1,15.77 38.11,15.78 15.02,-0.01 28.24,-5.97 38.1,-15.78 9.81,-9.88 15.78,-23.1 15.8,-38.11 -0.02,-15.01 -5.99,-28.23 -15.8,-38.1 -9.86,-9.82 -23.08,-15.78 -38.1,-15.79 -15.01,0.01 -28.23,5.98 -38.11,15.79 -9.81,9.87 -15.76,23.09 -15.77,38.1 0.01,15.01 5.96,28.23 15.77,38.11 z m 533.35,83.57 c 0,35.89 -14.66,68.73 -38.2,92.2 -23.47,23.53 -56.31,38.2 -92.19,38.18 -35.9,0.02 -68.74,-14.65 -92.21,-38.18 -23.52,-23.47 -38.2,-56.31 -38.19,-92.2 -0.01,-35.89 14.67,-68.72 38.19,-92.2 14.79,-14.83 33.3,-26.11 53.96,-32.44 V 3236.79 L 5053.3,2819.28 v 356.49 l 624.68,286.84 v 240.6 c 20.64,6.34 39.17,17.62 53.95,32.45 23.55,23.48 38.22,56.31 38.21,92.2 0.01,35.89 -14.66,68.73 -38.21,92.2 -23.46,23.53 -56.31,38.21 -92.19,38.18 -35.89,0.03 -68.72,-14.65 -92.18,-38.18 -23.55,-23.47 -38.21,-56.31 -38.19,-92.2 -0.02,-35.89 14.64,-68.72 38.19,-92.2 14.78,-14.83 33.3,-26.11 53.94,-32.45 v -191.55 l -624.68,-286.85 v -681.08 h 76.48 v 199.84 l 3.17,-6.94 986.37,451.03 v 637.24 c 20.64,6.33 39.15,17.61 53.94,32.44 23.54,23.48 38.2,56.31 38.2,92.2 z"
         id="path36" /></clipPath><linearGradient
       x1="0"
       y1="0"
       x2="1"
       y2="0"
       gradientUnits="userSpaceOnUse"
       gradientTransform="matrix(-208.088,-2809.19,-2809.19,208.088,5687.37,5359.6)"
       spreadMethod="pad"
       id="linearGradient46"><stop
         style="stop-opacity:1;stop-color:#cfd307"
         offset="0"
         id="stop40" /><stop
         style="stop-opacity:1;stop-color:#cfd307"
         offset="0.20540957"
         id="stop42" /><stop
         style="stop-opacity:1;stop-color:#123d10"
         offset="1"
         id="stop44" /></linearGradient><clipPath
       clipPathUnits="userSpaceOnUse"
       id="clipPath56"><path
         d="m 4874.71,4584.7 c -9.88,-9.81 -23.12,-15.77 -38.12,-15.78 -15,0.01 -28.23,5.97 -38.1,15.78 -9.81,9.88 -15.78,23.11 -15.78,38.11 0,15 5.97,28.23 15.78,38.11 9.87,9.81 23.1,15.76 38.1,15.79 15,-0.03 28.24,-5.98 38.12,-15.79 9.8,-9.88 15.76,-23.11 15.78,-38.11 -0.02,-15 -5.98,-28.23 -15.78,-38.11 z m 140.13,-299.51 c 48.86,43.2 111.97,85.59 192.62,117.34 80.67,31.71 179,52.88 299,52.89 56.43,0 117.74,-4.8 184.1,-15.36 -21.62,-38.46 -59.15,-97.13 -113.94,-155.13 -46.22,-49 -104.43,-97.39 -175.25,-133.36 -70.88,-35.96 -154.19,-59.77 -252.66,-59.81 -34.14,0 -70.18,2.95 -108.12,9.29 v -77.49 c 37.46,-5.63 73.51,-8.3 108.12,-8.3 111.85,-0.04 208.48,27.67 289.2,69.09 121.21,62.19 206.91,154.26 262.72,230.43 55.77,76.26 81.82,137.07 82.66,138.95 l 18.53,43.44 -46.34,9.1 c -90.47,17.77 -173.3,25.65 -249.02,25.65 -134.2,0.02 -246.06,-24.82 -337.77,-62.55 -137.66,-56.58 -229.46,-141.77 -286.55,-212.78 -2.53,-3.14 -4.9,-6.22 -7.3,-9.3 v 250.88 c 20.64,6.33 39.15,17.62 53.95,32.45 23.53,23.46 38.2,56.3 38.19,92.19 0.01,35.89 -14.66,68.72 -38.19,92.19 -23.48,23.55 -56.32,38.2 -92.2,38.19 -35.88,0.01 -68.72,-14.64 -92.2,-38.19 -23.52,-23.47 -38.2,-56.3 -38.19,-92.19 -0.01,-35.89 14.67,-68.73 38.19,-92.19 14.8,-14.83 33.32,-26.12 53.96,-32.46 v -379.05 -117.42 -336.32 c -21.48,28.53 -48.75,60.08 -82.72,91.7 -54.26,50.45 -125.74,100.93 -217.48,138.63 -91.71,37.72 -203.56,62.57 -337.77,62.54 -75.72,0 -158.56,-7.87 -249.02,-25.64 l -46.34,-9.11 18.53,-43.43 c 1.16,-2.5 46.92,-109.82 148.63,-218.73 50.89,-54.41 115.94,-109.25 196.75,-150.65 80.73,-41.43 177.34,-69.14 289.2,-69.1 30.66,0 62.47,2.16 95.36,6.54 v 77.17 c -33.29,-4.95 -65.06,-7.21 -95.36,-7.21 -99.24,0.04 -183.09,24.22 -254.32,60.66 -106.73,54.61 -184.84,137.72 -235.88,207.54 -22.39,30.6 -39.55,58.53 -51.69,80.1 66.38,10.57 127.7,15.37 184.14,15.37 124.83,-0.02 226.23,-22.92 308.68,-56.79 123.6,-50.83 205.12,-126.74 256.05,-189.98 25.42,-31.6 43.07,-59.98 54.26,-80.16 5.59,-10.08 9.55,-18.12 12.05,-23.46 0.23,-0.49 0.39,-0.84 0.57,-1.28 v -986.35 h 82.85 v 1457.96 102.09 c 10.3,22.38 51.64,103.36 140,181.41 z"
         id="path54" /></clipPath><linearGradient
       x1="0"
       y1="0"
       x2="1"
       y2="0"
       gradientUnits="userSpaceOnUse"
       gradientTransform="matrix(-208.088,-2809.19,-2809.19,208.088,4922.75,5416.23)"
       spreadMethod="pad"
       id="linearGradient64"><stop
         style="stop-opacity:1;stop-color:#cfd307"
         offset="0"
         id="stop58" /><stop
         style="stop-opacity:1;stop-color:#cfd307"
         offset="0.20540957"
         id="stop60" /><stop
         style="stop-opacity:1;stop-color:#123d10"
         offset="1"
         id="stop62" /></linearGradient></defs><sodipodi:namedview
     pagecolor="#ffffff"
     bordercolor="#666666"
     borderopacity="1"
     objecttolerance="10"
     gridtolerance="10"
     guidetolerance="10"
     inkscape:pageopacity="0"
     inkscape:pageshadow="2"
     inkscape:window-width="640"
     inkscape:window-height="480"
     id="namedview4" /><g
     id="g10"
     inkscape:groupmode="layer"
     inkscape:label="ink_ext_XXXXXX"
     transform="matrix(1.3333333,0,0,-1.3333333,0,886.66667)"><g
       id="g12"
       transform="scale(0.1)"><g
         id="g14"><g
           id="g16"
           clip-path="url(#clipPath20)"><path
             d="m 4263.06,3285.9 c 9.87,9.82 23.1,15.78 38.1,15.79 15,-0.01 28.23,-5.97 38.11,-15.79 9.81,-9.86 15.78,-23.1 15.79,-38.1 -0.01,-15.02 -5.98,-28.24 -15.79,-38.11 -9.88,-9.82 -23.11,-15.77 -38.11,-15.78 -15,0.01 -28.23,5.97 -38.1,15.78 -9.82,9.87 -15.77,23.09 -15.78,38.11 0.01,15 5.96,28.24 15.78,38.1 z m 76.35,-162.75 c 20.64,6.34 39.15,17.62 53.95,32.45 23.53,23.47 38.21,56.31 38.18,92.2 0.03,35.89 -14.65,68.72 -38.18,92.2 -23.48,23.53 -56.31,38.2 -92.2,38.18 -35.88,0.02 -68.71,-14.65 -92.2,-38.18 -23.53,-23.49 -38.2,-56.31 -38.18,-92.2 -0.02,-35.89 14.65,-68.73 38.18,-92.2 14.8,-14.83 33.32,-26.12 53.96,-32.45 v -273.98 l 344.21,-57.35 v -248.09 h 76.48 v 312.87 l -344.2,57.36 v 209.19"
             style="fill:url(#linearGradient28);fill-opacity:1;fill-rule:nonzero;stroke:none"
             id="path30" /></g></g><g
         id="g32"><g
           id="g34"
           clip-path="url(#clipPath38)"><path
             d="m 6042.71,3911.43 c -9.9,-9.81 -23.11,-15.77 -38.12,-15.79 -15,0.02 -28.24,5.98 -38.12,15.79 -9.82,9.87 -15.77,23.1 -15.78,38.11 0.01,15 5.96,28.23 15.78,38.11 9.88,9.81 23.12,15.77 38.12,15.79 15.01,-0.02 28.22,-5.98 38.12,-15.79 9.8,-9.88 15.76,-23.11 15.77,-38.11 -0.01,-15.01 -5.97,-28.24 -15.77,-38.11 z m -441.08,-45.46 c 9.88,9.81 23.1,15.77 38.11,15.78 15.02,-0.01 28.24,-5.97 38.1,-15.78 9.81,-9.88 15.78,-23.1 15.8,-38.11 -0.02,-15.01 -5.99,-28.23 -15.8,-38.1 -9.86,-9.82 -23.08,-15.78 -38.1,-15.79 -15.01,0.01 -28.23,5.98 -38.11,15.79 -9.81,9.87 -15.76,23.09 -15.77,38.1 0.01,15.01 5.96,28.23 15.77,38.11 z m 533.35,83.57 c 0,35.89 -14.66,68.73 -38.2,92.2 -23.47,23.53 -56.31,38.2 -92.19,38.18 -35.9,0.02 -68.74,-14.65 -92.21,-38.18 -23.52,-23.47 -38.2,-56.31 -38.19,-92.2 -0.01,-35.89 14.67,-68.72 38.19,-92.2 14.79,-14.83 33.3,-26.11 53.96,-32.44 V 3236.79 L 5053.3,2819.28 v 356.49 l 624.68,286.84 v 240.6 c 20.64,6.34 39.17,17.62 53.95,32.45 23.55,23.48 38.22,56.31 38.21,92.2 0.01,35.89 -14.66,68.73 -38.21,92.2 -23.46,23.53 -56.31,38.21 -92.19,38.18 -35.89,0.03 -68.72,-14.65 -92.18,-38.18 -23.55,-23.47 -38.21,-56.31 -38.19,-92.2 -0.02,-35.89 14.64,-68.72 38.19,-92.2 14.78,-14.83 33.3,-26.11 53.94,-32.45 v -191.55 l -624.68,-286.85 v -681.08 h 76.48 v 199.84 l 3.17,-6.94 986.37,451.03 v 637.24 c 20.64,6.33 39.15,17.61 53.94,32.44 23.54,23.48 38.2,56.31 38.2,92.2"
             style="fill:url(#linearGradient46);fill-opacity:1;fill-rule:nonzero;stroke:none"
             id="path48" /></g></g><g
         id="g50"><g
           id="g52"
           clip-path="url(#clipPath56)"><path
             d="m 4874.71,4584.7 c -9.88,-9.81 -23.12,-15.77 -38.12,-15.78 -15,0.01 -28.23,5.97 -38.1,15.78 -9.81,9.88 -15.78,23.11 -15.78,38.11 0,15 5.97,28.23 15.78,38.11 9.87,9.81 23.1,15.76 38.1,15.79 15,-0.03 28.24,-5.98 38.12,-15.79 9.8,-9.88 15.76,-23.11 15.78,-38.11 -0.02,-15 -5.98,-28.23 -15.78,-38.11 z m 140.13,-299.51 c 48.86,43.2 111.97,85.59 192.62,117.34 80.67,31.71 179,52.88 299,52.89 56.43,0 117.74,-4.8 184.1,-15.36 -21.62,-38.46 -59.15,-97.13 -113.94,-155.13 -46.22,-49 -104.43,-97.39 -175.25,-133.36 -70.88,-35.96 -154.19,-59.77 -252.66,-59.81 -34.14,0 -70.18,2.95 -108.12,9.29 v -77.49 c 37.46,-5.63 73.51,-8.3 108.12,-8.3 111.85,-0.04 208.48,27.67 289.2,69.09 121.21,62.19 206.91,154.26 262.72,230.43 55.77,76.26 81.82,137.07 82.66,138.95 l 18.53,43.44 -46.34,9.1 c -90.47,17.77 -173.3,25.65 -249.02,25.65 -134.2,0.02 -246.06,-24.82 -337.77,-62.55 -137.66,-56.58 -229.46,-141.77 -286.55,-212.78 -2.53,-3.14 -4.9,-6.22 -7.3,-9.3 v 250.88 c 20.64,6.33 39.15,17.62 53.95,32.45 23.53,23.46 38.2,56.3 38.19,92.19 0.01,35.89 -14.66,68.72 -38.19,92.19 -23.48,23.55 -56.32,38.2 -92.2,38.19 -35.88,0.01 -68.72,-14.64 -92.2,-38.19 -23.52,-23.47 -38.2,-56.3 -38.19,-92.19 -0.01,-35.89 14.67,-68.73 38.19,-92.19 14.8,-14.83 33.32,-26.12 53.96,-32.46 v -379.05 -117.42 -336.32 c -21.48,28.53 -48.75,60.08 -82.72,91.7 -54.26,50.45 -125.74,100.93 -217.48,138.63 -91.71,37.72 -203.56,62.57 -337.77,62.54 -75.72,0 -158.56,-7.87 -249.02,-25.64 l -46.34,-9.11 18.53,-43.43 c 1.16,-2.5 46.92,-109.82 148.63,-218.73 50.89,-54.41 115.94,-109.25 196.75,-150.65 80.73,-41.43 177.34,-69.14 289.2,-69.1 30.66,0 62.47,2.16 95.36,6.54 v 77.17 c -33.29,-4.95 -65.06,-7.21 -95.36,-7.21 -99.24,0.04 -183.09,24.22 -254.32,60.66 -106.73,54.61 -184.84,137.72 -235.88,207.54 -22.39,30.6 -39.55,58.53 -51.69,80.1 66.38,10.57 127.7,15.37 184.14,15.37 124.83,-0.02 226.23,-22.92 308.68,-56.79 123.6,-50.83 205.12,-126.74 256.05,-189.98 25.42,-31.6 43.07,-59.98 54.26,-80.16 5.59,-10.08 9.55,-18.12 12.05,-23.46 0.23,-0.49 0.39,-0.84 0.57,-1.28 v -986.35 h 82.85 v 1457.96 102.09 c 10.3,22.38 51.64,103.36 140,181.41"
             style="fill:url(#linearGradient64);fill-opacity:1;fill-rule:nonzero;stroke:none"
             id="path66" /></g></g><path
         d="m 3082.93,2121.39 c 0,-55.87 -22.9,-103.62 -68.69,-143.24 -44.29,-38.13 -95.59,-57.18 -153.87,-57.18 -60.95,0 -113.65,21.25 -158.12,63.79 -44.49,42.52 -66.72,94.21 -66.72,155.07 0,27.23 5.77,54.25 17.32,81.1 11.53,26.83 27.34,50.08 47.41,69.73 21.57,21.18 45.98,37.15 73.25,47.92 27.24,10.78 56.2,16.17 86.86,16.17 42.01,0 81.38,-10.23 118.1,-30.66 40.49,-22.71 66.8,-52.06 78.91,-88.01 h -47.69 c -14.39,24.21 -35.2,43.33 -62.45,57.34 -27.25,14 -56.2,21.01 -86.87,21.01 -23.48,0 -45.8,-3.87 -67,-11.62 -21.2,-7.75 -40.6,-19.66 -58.19,-35.71 -17.61,-16.06 -31.62,-35.43 -42.02,-58.11 -10.42,-22.67 -15.61,-45.91 -15.61,-69.71 0,-50.28 18.07,-92.51 54.22,-126.71 36.14,-34.2 79.58,-51.29 130.3,-51.29 38.61,0 73.99,11.3 106.17,33.91 32.17,22.59 53.57,51.98 64.16,88.16 h -235.06 v 38.04 h 285.59"
         style="fill:#123d10;fill-opacity:1;fill-rule:nonzero;stroke:none"
         id="path68" /><path
         d="m 3272.57,2203.72 c -20.44,0 -39.18,-7.21 -56.21,-21.58 -13.25,-11.36 -21.87,-22.71 -25.83,-34.06 -3.98,-11.36 -5.97,-26.89 -5.97,-46.56 v -173.75 h -42.01 v 311.15 h 39.74 v -45.42 c 7.94,17.78 19.77,30.93 35.48,39.46 15.71,8.51 33.98,12.77 54.8,12.77 v -42.01"
         style="fill:#123d10;fill-opacity:1;fill-rule:nonzero;stroke:none"
         id="path70" /><path
         d="m 3584.28,2085.62 c 0,31.79 -11.84,59.7 -35.49,83.75 -23.66,24.03 -51.77,36.05 -84.32,36.05 -34.06,0 -62.73,-12.02 -86.01,-36.05 -23.28,-24.05 -34.92,-53.29 -34.92,-87.73 0,-33.31 11.72,-61.7 35.2,-85.16 23.47,-23.48 52.04,-35.2 85.73,-35.2 34.07,0 62.55,12.21 85.46,36.62 22.89,24.41 34.35,53.65 34.35,87.72 z m 42.01,-0.29 c 0,-44.59 -15.89,-83.13 -47.69,-115.62 -31.79,-32.5 -69.84,-48.74 -114.13,-48.74 -44.67,0 -82.99,15.58 -114.97,46.75 -31.99,31.18 -47.98,69.06 -47.98,113.64 0,45.34 15.71,84.07 47.13,116.19 31.41,32.11 70.02,48.18 115.82,48.18 43.16,0 80.91,-15.96 113.27,-47.9 32.37,-31.93 48.55,-69.42 48.55,-112.5"
         style="fill:#123d10;fill-opacity:1;fill-rule:nonzero;stroke:none"
         id="path72" /><path
         d="m 4117.99,2238.92 -118.1,-311.15 -48.52,-0.07 -66.75,205.55 -64.97,-205.57 -48.57,0.09 -117.54,311.15 44.85,0.2 97.48,-259.69 71.73,220.87 h 34.59 l 72.05,-221.72 99.41,260.36 44.34,-0.02"
         style="fill:#123d10;fill-opacity:1;fill-rule:nonzero;stroke:none"
         id="path74" /><path
         d="m 4414.41,2106.62 -81.27,193.43 -81.52,-193.43 z m 122.58,-178.85 -45.67,-0.09 -60.56,140.9 H 4234.6 l -60.65,-140.7 -45.19,-0.11 181.12,420.16 h 46.57 l 124.92,-290.69 55.62,-129.47"
         style="fill:#b9bd19;fill-opacity:1;fill-rule:nonzero;stroke:none"
         id="path76" /><path
         d="m 4852.68,1927.77 h -40.32 v 48.27 c -9.84,-18.74 -23.65,-32.59 -41.44,-41.59 -17.79,-8.99 -38.23,-13.48 -61.32,-13.48 -21.2,0 -40.31,4.16 -57.34,12.46 -17.05,8.31 -34.27,22.67 -51.67,43.08 -8.71,9.07 -14.58,21.62 -17.61,37.68 -3.03,16.05 -4.53,36.18 -4.53,60.37 v 164.36 h 42.01 V 2074.6 c 0,-19.64 1.03,-33.91 3.12,-42.77 2.09,-8.89 5.61,-17.48 10.54,-25.79 17.46,-29.84 44.6,-44.76 81.44,-44.76 31.88,0 57.33,12.65 76.32,37.96 7.19,10.2 12.12,21.34 14.79,33.43 2.67,12.08 3.99,26.06 3.99,41.93 v 164.32 h 42.02 v -311.15"
         style="fill:#b9bd19;fill-opacity:1;fill-rule:nonzero;stroke:none"
         id="path78" /><path
         d="m 5074.67,2200.3 h -72.11 v -272.53 h -42.01 v 272.53 h -64.73 v 38.62 h 64.73 v 109.01 h 42.01 v -109.01 h 72.11 v -38.62"
         style="fill:#b9bd19;fill-opacity:1;fill-rule:nonzero;stroke:none"
         id="path80" /><path
         d="m 5388.09,2085.62 c 0,31.79 -11.85,59.7 -35.5,83.75 -23.65,24.03 -51.76,36.05 -84.32,36.05 -34.06,0 -62.73,-12.02 -86.01,-36.05 -23.29,-24.05 -34.92,-53.29 -34.92,-87.73 0,-33.31 11.72,-61.7 35.2,-85.16 23.47,-23.48 52.04,-35.2 85.73,-35.2 34.07,0 62.55,12.21 85.45,36.62 22.9,24.41 34.37,53.65 34.37,87.72 z m 42.01,-0.29 c 0,-44.59 -15.91,-83.13 -47.7,-115.62 -31.8,-32.5 -69.83,-48.74 -114.13,-48.74 -44.67,0 -82.99,15.58 -114.97,46.75 -31.99,31.18 -47.98,69.06 -47.98,113.64 0,45.34 15.71,84.07 47.13,116.19 31.41,32.11 70.02,48.18 115.82,48.18 43.16,0 80.92,-15.96 113.28,-47.9 32.37,-31.93 48.55,-69.42 48.55,-112.5"
         style="fill:#b9bd19;fill-opacity:1;fill-rule:nonzero;stroke:none"
         id="path82" /><path
         d="m 5950.18,1927.77 h -42.03 v 173.53 c 0,14.79 -0.94,27.4 -2.83,37.83 -1.89,10.43 -6.06,20.21 -12.5,29.3 -17.4,24.67 -40.88,36.99 -70.39,36.99 -29.16,0 -52.06,-11.76 -68.71,-35.27 -5.67,-7.97 -9.28,-17.55 -10.79,-28.73 -1.5,-11.21 -2.28,-24.57 -2.28,-40.12 v -173.53 h -42.01 v 178.08 c 0,13.65 -0.94,25.04 -2.83,34.14 -1.89,9.11 -5.87,18.39 -11.92,27.88 -17.43,25.03 -40.7,37.55 -69.84,37.55 -14.01,0 -26.78,-2.75 -38.33,-8.25 -11.55,-5.5 -21.47,-13.75 -29.8,-24.75 -6.06,-9.1 -10.03,-18.88 -11.93,-29.3 -1.9,-10.43 -2.83,-22.86 -2.83,-37.27 v -178.08 h -42.02 v 311.15 h 39.75 v -40.88 c 7.55,15.9 18.61,27.82 33.16,35.77 14.54,7.95 31.08,11.92 49.6,11.92 41.21,0 74.65,-15.9 100.35,-47.69 l 7.94,-11.93 6.23,11.93 c 10.6,14.76 24.95,26.39 43.11,34.92 18.14,8.51 36.66,12.77 55.57,12.77 33.27,0 65.4,-15.9 96.41,-47.69 11.33,-11.35 19.28,-25.36 23.82,-42.02 3.4,-12.87 5.1,-29.91 5.1,-51.1 v -177.15"
         style="fill:#b9bd19;fill-opacity:1;fill-rule:nonzero;stroke:none"
         id="path84" /><path
         d="m 6299.35,2081.64 c 0,34.44 -11.64,63.68 -34.92,87.73 -23.29,24.03 -52.34,36.05 -87.15,36.05 -34.08,0 -63.32,-12.02 -87.73,-36.05 -24.4,-24.05 -36.62,-53.09 -36.62,-87.16 0,-33.69 12.49,-62.27 37.47,-85.73 24.99,-23.48 54.32,-35.2 88,-35.2 32.18,0 60.39,11.92 84.61,35.76 24.23,23.85 36.34,52.04 36.34,84.6 z m 40.31,-153.87 h -40.31 v 58.48 c -11.36,-21.01 -27.92,-37.15 -49.69,-48.4 -21.76,-11.25 -45.51,-16.88 -71.26,-16.88 -24.22,0 -48.25,5.48 -72.1,16.43 -23.85,10.96 -45.41,27.39 -64.73,49.31 -6.8,7.56 -13.25,19.66 -19.3,36.28 -7.57,20.78 -11.35,41.56 -11.35,62.34 0,20.78 3.87,40.33 11.64,58.66 7.74,18.32 19.11,35.33 34.05,51.01 14.96,15.67 32.36,28.06 52.25,37.12 19.87,9.07 42.67,13.61 68.42,13.61 26.11,0 50.04,-5.58 71.82,-16.75 21.76,-11.17 38.14,-27.73 49.1,-49.68 l 1.15,59.62 h 40.31 v -290.71 -20.44"
         style="fill:#b9bd19;fill-opacity:1;fill-rule:nonzero;stroke:none"
         id="path86" /><path
         d="m 6561.08,2200.3 h -72.11 v -272.53 h -42.01 v 272.53 h -64.72 v 38.62 h 64.72 v 109.01 h 42.01 v -109.01 h 72.11 v -38.62"
         style="fill:#b9bd19;fill-opacity:1;fill-rule:nonzero;stroke:none"
         id="path88" /><path
         d="m 6645.67,1927.77 h -42.01 v 311.15 h 42.01 z m 0,348.62 h -42.01 v 63.02 h 42.01 v -63.02"
         style="fill:#b9bd19;fill-opacity:1;fill-rule:nonzero;stroke:none"
         id="path90" /><path
         d="m 6988.06,2085.62 c 0,31.79 -11.84,59.7 -35.5,83.75 -23.65,24.03 -51.76,36.05 -84.31,36.05 -34.07,0 -62.74,-12.02 -86.02,-36.05 -23.28,-24.05 -34.92,-53.29 -34.92,-87.73 0,-33.31 11.72,-61.7 35.2,-85.16 23.48,-23.48 52.04,-35.2 85.74,-35.2 34.06,0 62.54,12.21 85.44,36.62 22.9,24.41 34.37,53.65 34.37,87.72 z m 42.01,-0.29 c 0,-44.59 -15.91,-83.13 -47.7,-115.62 -31.79,-32.5 -69.83,-48.74 -114.12,-48.74 -44.68,0 -83,15.58 -114.98,46.75 -31.99,31.18 -47.98,69.06 -47.98,113.64 0,45.34 15.71,84.07 47.13,116.19 31.42,32.11 70.02,48.18 115.83,48.18 43.16,0 80.91,-15.96 113.27,-47.9 32.37,-31.93 48.55,-69.42 48.55,-112.5"
         style="fill:#b9bd19;fill-opacity:1;fill-rule:nonzero;stroke:none"
         id="path92" /><path
         d="m 7364.47,1927.77 h -42.02 v 163.87 c 0,20.47 -1.52,35.84 -4.56,46.07 -3.03,10.24 -7.59,19.54 -13.65,27.89 -19,26.54 -45.75,39.82 -80.3,39.82 -15.19,0 -29.53,-3.33 -43,-9.96 -13.48,-6.64 -24.57,-16.03 -33.3,-28.16 -7.23,-9.48 -11.78,-20.29 -13.68,-32.43 -1.89,-12.14 -2.85,-26.55 -2.85,-43.23 v -163.87 h -42.01 v 311.15 h 39.75 v -45.42 c 24.22,34.81 56.39,52.23 96.51,52.23 21.57,0 41.83,-4.45 60.75,-13.34 18.94,-8.9 35.39,-21.86 49.4,-38.89 10.97,-13.63 18.54,-28.77 22.71,-45.42 4.16,-16.67 6.25,-35.59 6.25,-56.78 v -163.53"
         style="fill:#b9bd19;fill-opacity:1;fill-rule:nonzero;stroke:none"
         id="path94" /></g></g></svg>
