<?xml version="1.0" encoding="UTF-8" standalone="no"?>
<svg
   xmlns:dc="http://purl.org/dc/elements/1.1/"
   xmlns:cc="http://creativecommons.org/ns#"
   xmlns:rdf="http://www.w3.org/1999/02/22-rdf-syntax-ns#"
   xmlns:svg="http://www.w3.org/2000/svg"
   xmlns="http://www.w3.org/2000/svg"
   xmlns:sodipodi="http://sodipodi.sourceforge.net/DTD/sodipodi-0.dtd"
   xmlns:inkscape="http://www.inkscape.org/namespaces/inkscape"
   version="1.1"
   id="svg2"
   xml:space="preserve"
   width="1333.3333"
   height="886.66669"
   viewBox="450 230 430 420"
   sodipodi:docname="GrowAutomation-10.eps"><metadata
     id="metadata8"><rdf:RDF><cc:Work
         rdf:about=""><dc:format>image/svg+xml</dc:format><dc:type
           rdf:resource="http://purl.org/dc/dcmitype/StillImage" /></cc:Work></rdf:RDF></metadata><defs
     id="defs6" /><sodipodi:namedview
     pagecolor="#ffffff"
     bordercolor="#666666"
     borderopacity="1"
     objecttolerance="10"
     gridtolerance="10"
     guidetolerance="10"
     inkscape:pageopacity="0"
     inkscape:pageshadow="2"
     inkscape:window-width="640"
     inkscape:window-height="480"
     id="namedview4" /><g
     id="g10"
     inkscape:groupmode="layer"
     inkscape:label="ink_ext_XXXXXX"
     transform="matrix(1.3333333,0,0,-1.3333333,0,886.66667)"><g
       id="g12"
       transform="scale(0.1)"><path
         d="M 10000,0 H 0 V 6650 H 10000 V 0"
         style="fill:#b9bd19;fill-opacity:1;fill-rule:nonzero;stroke:none"
         id="path14" /><path
         d="m 5076.52,1915.31 v 806.51 l 797.13,366.01 v 389.16 h -97.59 v -326.56 l -797.14,-366.02 v -869.1 h 97.6"
         style="fill:#123d10;fill-opacity:1;fill-rule:nonzero;stroke:none"
         id="path16" /><path
         d="m 4604.79,1915.31 v 399.23 l -439.23,73.21 v 308.4 h -97.61 v -391.09 l 439.23,-73.19 v -316.56 h 97.61"
         style="fill:#123d10;fill-opacity:1;fill-rule:nonzero;stroke:none"
         id="path18" /><path
         d="m 5942.42,3553.93 h -48.78 c -0.03,-19.16 -7.65,-36.04 -20.16,-48.63 -12.59,-12.53 -29.47,-20.13 -48.63,-20.14 -19.15,0.01 -36.01,7.63 -48.63,20.14 -12.51,12.59 -20.1,29.47 -20.12,48.63 0.02,19.15 7.61,36.02 20.12,48.62 12.62,12.52 29.48,20.13 48.63,20.14 19.16,-0.01 36.04,-7.62 48.63,-20.14 12.51,-12.6 20.13,-29.47 20.16,-48.62 h 48.78 48.83 c 0.01,45.79 -18.71,87.69 -48.75,117.64 -29.95,30.03 -71.87,48.75 -117.65,48.73 -45.79,0.02 -87.69,-18.7 -117.62,-48.73 -30.04,-29.95 -48.76,-71.85 -48.74,-117.64 -0.02,-45.8 18.7,-87.71 48.74,-117.66 29.93,-30.03 71.83,-48.74 117.62,-48.73 45.78,-0.01 87.7,18.7 117.65,48.73 30.04,29.95 48.76,71.86 48.75,117.66 h -48.83"
         style="fill:#123d10;fill-opacity:1;fill-rule:nonzero;stroke:none"
         id="path20" /><path
         d="m 6407.98,3709.19 h -48.79 c -0.02,-19.15 -7.62,-36.02 -20.12,-48.62 -12.63,-12.53 -29.5,-20.14 -48.65,-20.15 -19.14,0.01 -36.04,7.62 -48.63,20.15 -12.53,12.6 -20.12,29.47 -20.14,48.62 0.02,19.14 7.61,36.03 20.14,48.63 12.59,12.51 29.49,20.12 48.63,20.15 19.15,-0.03 36.02,-7.64 48.65,-20.15 12.5,-12.6 20.1,-29.49 20.12,-48.63 h 48.79 48.83 c 0,45.79 -18.7,87.71 -48.74,117.65 -29.95,30.04 -71.87,48.75 -117.65,48.73 -45.8,0.02 -87.71,-18.69 -117.66,-48.73 -30.02,-29.94 -48.75,-71.86 -48.73,-117.65 -0.02,-45.79 18.71,-87.69 48.73,-117.64 29.95,-30.04 71.86,-48.75 117.66,-48.74 45.78,-0.01 87.7,18.7 117.65,48.74 30.04,29.95 48.74,71.85 48.74,117.64 h -48.83"
         style="fill:#123d10;fill-opacity:1;fill-rule:nonzero;stroke:none"
         id="path22" /><path
         d="m 4234.34,2813.73 h -48.81 c -0.02,-19.16 -7.62,-36.03 -20.15,-48.63 -12.6,-12.52 -29.49,-20.13 -48.62,-20.14 -19.15,0.01 -36.04,7.63 -48.63,20.14 -12.53,12.6 -20.12,29.47 -20.14,48.63 0.02,19.15 7.61,36.03 20.14,48.63 12.59,12.53 29.48,20.12 48.63,20.14 19.13,-0.02 36.02,-7.61 48.62,-20.14 12.53,-12.6 20.13,-29.49 20.15,-48.63 h 48.81 48.79 c 0.03,45.79 -18.69,87.7 -48.72,117.65 -29.96,30.04 -71.86,48.75 -117.65,48.73 -45.79,0.02 -87.69,-18.69 -117.65,-48.73 -30.04,-29.96 -48.75,-71.86 -48.72,-117.65 -0.03,-45.79 18.68,-87.7 48.72,-117.65 29.96,-30.03 71.86,-48.75 117.65,-48.72 45.78,-0.03 87.68,18.69 117.65,48.72 30.03,29.95 48.75,71.86 48.72,117.65 h -48.79"
         style="fill:#123d10;fill-opacity:1;fill-rule:nonzero;stroke:none"
         id="path24" /><path
         d="m 5080.58,2161.45 1258.65,575.53 v 885.35 h -97.62 V 2799.68 L 5040,2250.22 l 40.58,-88.77"
         style="fill:#123d10;fill-opacity:1;fill-rule:nonzero;stroke:none"
         id="path26" /><path
         d="m 4751.37,4616.96 c 12.59,12.51 29.47,20.11 48.63,20.14 19.14,-0.03 36.03,-7.62 48.62,-20.14 12.52,-12.6 20.13,-29.5 20.15,-48.65 -0.02,-19.13 -7.63,-36.01 -20.15,-48.62 -12.59,-12.51 -29.48,-20.13 -48.62,-20.14 -19.16,0.01 -36.04,7.63 -48.63,20.14 -12.52,12.61 -20.12,29.49 -20.14,48.62 0.02,19.15 7.62,36.05 20.14,48.65 z m 1221.17,-197.35 c -115.43,22.68 -221.14,32.73 -317.76,32.73 -171.25,0.03 -313.98,-31.66 -431.01,-79.82 -175.66,-72.2 -292.81,-180.9 -365.65,-271.51 -3.23,-4.02 -6.26,-7.94 -9.32,-11.88 v 320.14 c 26.34,8.09 49.96,22.49 68.84,41.41 30.03,29.94 48.76,71.85 48.73,117.63 0.03,45.8 -18.7,87.71 -48.73,117.66 -29.96,30.04 -71.86,48.75 -117.64,48.73 -45.79,0.02 -87.7,-18.69 -117.66,-48.73 -30.02,-29.95 -48.74,-71.86 -48.73,-117.66 -0.01,-45.78 18.71,-87.69 48.73,-117.63 18.88,-18.92 42.51,-33.32 68.86,-41.41 v -483.69 -149.85 -429.15 c -27.42,36.4 -62.21,76.66 -105.56,117.01 -69.25,64.38 -160.45,128.8 -277.52,176.89 -117.03,48.15 -259.76,79.84 -431.02,79.81 -96.62,0 -202.32,-10.03 -317.76,-32.72 l -59.13,-11.62 23.66,-55.41 c 1.46,-3.2 59.86,-140.15 189.65,-279.12 64.93,-69.44 147.94,-139.41 251.06,-192.24 103.01,-52.87 226.3,-88.23 369.03,-88.17 39.12,0 79.72,2.74 121.69,8.34 v 98.47 c -42.48,-6.3 -83.02,-9.2 -121.69,-9.2 -126.64,0.05 -233.62,30.92 -324.53,77.41 -136.18,69.69 -235.86,175.74 -300.99,264.83 -28.57,39.05 -50.46,74.69 -65.95,102.22 84.69,13.48 162.94,19.61 234.96,19.61 159.3,-0.03 288.69,-29.24 393.91,-72.47 157.7,-64.87 261.73,-161.72 326.71,-242.43 32.44,-40.32 54.99,-76.54 69.24,-102.28 7.15,-12.87 12.19,-23.12 15.39,-29.94 0.3,-0.63 0.49,-1.07 0.74,-1.63 V 1915.31 h 105.71 v 1860.42 130.28 c 13.14,28.56 65.91,131.9 178.65,231.49 62.34,55.13 142.87,109.22 245.8,149.73 102.94,40.47 228.41,67.48 381.53,67.5 72.01,0 150.25,-6.13 234.92,-19.6 -27.58,-49.09 -75.47,-123.95 -145.38,-197.96 -58.99,-62.53 -133.28,-124.28 -223.65,-170.18 -90.44,-45.88 -196.74,-76.26 -322.39,-76.31 -43.57,0 -89.56,3.76 -137.99,11.85 v -98.88 c 47.81,-7.19 93.82,-10.6 137.99,-10.6 142.73,-0.04 266.03,35.32 369.02,88.16 154.68,79.37 264.05,196.85 335.27,294.05 71.15,97.31 104.39,174.9 105.46,177.31 l 23.65,55.43 -59.14,11.61"
         style="fill:#123d10;fill-opacity:1;fill-rule:nonzero;stroke:none"
         id="path28" /></g></g></svg>
